<svg id="SvgjsSvg1229" width="450" height="450" xmlns="http://www.w3.org/2000/svg" version="1.1" xmlns:xlink="http://www.w3.org/1999/xlink" xmlns:svgjs="http://svgjs.com/svgjs"><defs id="SvgjsDefs1230"></defs><g id="SvgjsG1231"><svg xmlns="http://www.w3.org/2000/svg" viewBox="0 0 60 60" width="450" height="450"><path style="font-feature-settings:normal;font-variant-alternates:normal;font-variant-caps:normal;font-variant-east-asian:normal;font-variant-ligatures:normal;font-variant-numeric:normal;font-variant-position:normal;font-variation-settings:normal;inline-size:0;isolation:auto;mix-blend-mode:normal;shape-margin:0;shape-padding:0;text-decoration-color:#000;text-decoration-line:none;text-decoration-style:solid;text-indent:0;text-orientation:mixed;text-transform:none" d="M22 8C14.261 8 8 14.261 8 22v16c0 7.739 6.261 14 14 14h16c7.739 0 14-6.261 14-14V22c0-7.739-6.261-14-14-14zm0 2h16c6.665 0 12 5.335 12 12v16c0 6.665-5.335 12-12 12h-5V36h4c1.645 0 3-1.355 3-3s-1.355-3-3-3h-4v-3c0-1.732 1.268-3 3-3h3c1.645 0 3-1.355 3-3s-1.355-3-3-3h-3c-4.944 0-9 4.056-9 9v3h-4c-1.645 0-3 1.355-3 3s1.355 3 3 3h4v14h-5c-6.665 0-12-5.335-12-12V22c0-6.665 5.335-12 12-12zm14 10h3c.564 0 1 .436 1 1s-.436 1-1 1h-3a4.99 4.99 0 0 0-5 5v4a1 1 0 0 0 1 1h5c.571 0 1 .429 1 1s-.429 1-1 1h-5a1 1 0 0 0-1 1v15h-2V35a1 1 0 0 0-1-1h-5c-.571 0-1-.429-1-1s.429-1 1-1h5a1 1 0 0 0 1-1v-4c0-3.851 3.149-7 7-7z" color="#000" fill="#ffffff" class="color000 svgShape"></path></svg></g></svg>