<svg id="SvgjsSvg1333" width="288" height="288" xmlns="http://www.w3.org/2000/svg" version="1.1" xmlns:xlink="http://www.w3.org/1999/xlink" xmlns:svgjs="http://svgjs.com/svgjs"><circle id="SvgjsCircle1341" r="144" cx="144" cy="144" transform="matrix(1,0,0,1,0,0)" fill="#ffffff"></circle><defs id="SvgjsDefs1334"></defs><g id="SvgjsG1335" transform="matrix(0.6900000000000001,0,0,0.6900000000000001,44.639999999999986,44.639999999999986)"><svg xmlns="http://www.w3.org/2000/svg" fill-rule="evenodd" clip-rule="evenodd" image-rendering="optimizeQuality" shape-rendering="geometricPrecision" text-rendering="geometricPrecision" viewBox="0 0 6.827 6.827" width="288" height="288"><path fill-rule="nonzero" d="M3.413 1.722c.239 0 .455.094.611.245a.821.821 0 0 1 0 1.184.875.875 0 0 1-.61.245.875.875 0 0 1-.611-.245.821.821 0 0 1 0-1.184.875.875 0 0 1 .61-.245zm.46.392a.659.659 0 0 0-.46-.185c-.18 0-.342.07-.46.185a.618.618 0 0 0 0 .89c.118.115.28.185.46.185s.343-.07.46-.184a.618.618 0 0 0 0-.891z" fill="#030637" class="color000 svgShape"></path><path fill-rule="nonzero" d="M3.319 5.838c-.138-.252-.305-.538-.48-.836-.367-.63-.767-1.312-.985-1.842a1.577 1.577 0 0 1-.119-.6c0-.45.188-.856.492-1.15A1.7 1.7 0 0 1 3.413.933 1.7 1.7 0 0 1 4.6 1.41a1.596 1.596 0 0 1 .37 1.755c-.22.53-.615 1.208-.982 1.834-.174.298-.342.585-.48.84a.108.108 0 0 1-.189-.001zM3.025 4.9c.138.235.271.463.388.671.118-.21.252-.439.39-.675.363-.62.755-1.29.97-1.809a1.374 1.374 0 0 0 .105-.529c0-.392-.164-.747-.429-1.003a1.484 1.484 0 0 0-1.036-.416c-.404 0-.77.159-1.035.416a1.393 1.393 0 0 0-.327 1.528c.212.515.609 1.192.974 1.817z" fill="#030637" class="color000 svgShape"></path><path fill="none" d="M0 0h6.827v6.827H0z"></path></svg></g></svg>