<svg id="SvgjsSvg1076" width="288" height="288" xmlns="http://www.w3.org/2000/svg" version="1.1" xmlns:xlink="http://www.w3.org/1999/xlink" xmlns:svgjs="http://svgjs.com/svgjs"><rect id="SvgjsRect1082" width="288" height="288" rx="20" ry="20" transform="matrix(1,0,0,1,0,0)" fill="#030637"></rect><defs id="SvgjsDefs1077"></defs><g id="SvgjsG1078" transform="matrix(0.94,0,0,0.94,8.640000000000015,8.775000000000006)"><svg xmlns="http://www.w3.org/2000/svg" viewBox="0 0 64 64" width="288" height="288"><path d="M52 13H12a6 6 0 0 0-6 6v27a6 6 0 0 0 6 6h40a6 6 0 0 0 6-6V19a6 6 0 0 0-6-6Zm2 33a2 2 0 0 1-2 2H12a2 2 0 0 1-2-2V19a2 2 0 0 1 2-2h40a2 2 0 0 1 2 2Z" fill="#ffffff" class="color000 svgShape"></path><path d="M47.91 19.32 32 29.62l-15.91-10.3a2 2 0 0 0-2.18 3.36l17 11a2 2 0 0 0 2.18 0l17-11a2 2 0 1 0-2.18-3.36Z" fill="#ffffff" class="color000 svgShape"></path></svg></g></svg>