<svg id="SvgjsSvg1401" width="288" height="288" xmlns="http://www.w3.org/2000/svg" version="1.1" xmlns:xlink="http://www.w3.org/1999/xlink" xmlns:svgjs="http://svgjs.com/svgjs"><circle id="SvgjsCircle1407" r="144" cx="144" cy="144" transform="matrix(0.9999999999999999,0,0,0.9999999999999999,2.842170943040401e-14,2.842170943040401e-14)" fill="#ffffff"></circle><defs id="SvgjsDefs1402"></defs><g id="SvgjsG1403" transform="matrix(0.5700000000000001,0,0,0.5700000000000001,61.93574707031249,61.904258097335685)"><svg xmlns="http://www.w3.org/2000/svg" data-name="1" viewBox="0 0 128 128" width="288" height="288"><path d="M126.74 86.4 90.8 72a2 2 0 0 0-1.9.22L72.52 83.87a88.62 88.62 0 0 1-28.46-28.49l11.68-16.27A2 2 0 0 0 56 37.2L41.6 1.26A2 2 0 0 0 39.37 0L1.66 7.22a1.93 1.93 0 0 0-.77.31 1.79 1.79 0 0 0-.36.3A2 2 0 0 0 0 9.18 119 119 0 0 0 118.81 128a2 2 0 0 0 1.35-.53 1.79 1.79 0 0 0 .3-.36 1.93 1.93 0 0 0 .31-.77L128 88.63a2 2 0 0 0-1.26-2.23Zm-9.58 37.6A115 115 0 0 1 4 10.84l34.49-6.57 13.36 33.4L40 54.12a2 2 0 0 0 0 2.19A92.42 92.42 0 0 0 71.57 88a2 2 0 0 0 2.18-.08l16.58-11.77 33.4 13.36Z" fill="#030637" class="color000 svgShape"></path></svg></g></svg>