<svg id="SvgjsSvg1258" width="288" height="288" xmlns="http://www.w3.org/2000/svg" version="1.1" xmlns:xlink="http://www.w3.org/1999/xlink" xmlns:svgjs="http://svgjs.com/svgjs"><defs id="SvgjsDefs1259"></defs><g id="SvgjsG1260"><svg xmlns="http://www.w3.org/2000/svg" viewBox="0 0 32 32" width="288" height="288"><path fill="none" stroke="#ffffff" stroke-linecap="round" stroke-linejoin="round" stroke-miterlimit="10" stroke-width="2" d="M17.5 13h-2a1.5 1.5 0 0 0-1.5 1.5v0a1.5 1.5 0 0 0 1.5 1.5h1a1.5 1.5 0 0 1 1.5 1.5v0a1.5 1.5 0 0 1-1.5 1.5H14M16 11.5V13M16 20.5V19" class="colorStroke000 svgStroke"></path><circle cx="16" cy="16" r="11" fill="none" stroke="#ffffff" stroke-linecap="round" stroke-linejoin="round" stroke-miterlimit="10" stroke-width="2" class="colorStroke000 svgStroke"></circle><path fill="none" stroke="#ffffff" stroke-linecap="round" stroke-linejoin="round" stroke-miterlimit="10" stroke-width="2" d="M16 25v4M3 16h4M16 7V3M25 16h4" class="colorStroke000 svgStroke"></path></svg></g></svg>