<svg id="SvgjsSvg1431" width="288" height="288" xmlns="http://www.w3.org/2000/svg" version="1.1" xmlns:xlink="http://www.w3.org/1999/xlink" xmlns:svgjs="http://svgjs.com/svgjs"><rect id="SvgjsRect1437" width="288" height="288" rx="20" ry="20" transform="matrix(1,0,0,1,0,0)" fill="#030637"></rect><defs id="SvgjsDefs1432"></defs><g id="SvgjsG1433" transform="matrix(0.76,0,0,0.76,34.56,34.56)"><svg xmlns="http://www.w3.org/2000/svg" viewBox="0 0 48 48" width="288" height="288"><path d="M15.7 22.9c-.1 0-.2 0-.2-.1l-2-1-2 1c-.2.1-.4.1-.5 0-.2-.1-.2-.3-.2-.5l.4-2.2-1.6-1.5c-.1-.1-.2-.3-.1-.5s.2-.3.4-.3l2.2-.3 1-2c.2-.3.7-.3.9 0l1 2 2.2.3c.2 0 .3.2.4.3.1.2 0 .4-.1.5l-1.6 1.5.4 2.2c0 .2 0 .4-.2.5-.1.1-.2.1-.4.1zm-2.1-2.1c.1 0 .2 0 .2.1l1.3.7-.3-1.6c0-.2 0-.3.1-.4l1.1-1-1.5-.2c-.2 0-.3-.1-.4-.3l-.6-1.3-.6 1.3c-.1.1-.2.3-.4.3l-1.5.2 1.1 1c.1.1.2.3.1.4l-.2 1.5 1.3-.7h.3zm12.1 2.1c-.1 0-.2 0-.2-.1l-2-1-2 1c-.2.1-.4.1-.5 0-.2-.1-.2-.3-.2-.5l.4-2.2-1.6-1.5c-.1-.1-.2-.3-.1-.5s.2-.3.4-.3l2.2-.3 1-2c.2-.3.7-.3.9 0l1 2 2.2.3c.2 0 .3.2.4.3.1.2 0 .4-.1.5l-1.6 1.5.4 2.2c0 .2 0 .4-.2.5-.2.1-.3.1-.4.1zm-2.2-2.1c.1 0 .2 0 .2.1l1.3.7-.2-1.6c0-.2 0-.3.1-.4l1.1-1-1.5-.2c-.2 0-.3-.1-.4-.3l-.6-1.3-.6 1.3c-.1.1-.2.3-.4.3l-1.5.2 1.1 1c.1.1.2.3.1.4l-.2 1.5 1.3-.7h.2zm12.1 2.1c-.1 0-.2 0-.2-.1l-2-1-2 1c-.2.1-.4.1-.5 0-.2-.1-.2-.3-.2-.5l.4-2.2-1.6-1.5c-.1-.1-.2-.3-.1-.5s.2-.3.4-.3l2.2-.3 1-2c.2-.3.7-.3.9 0l1 2 2.2.3c.2 0 .3.2.4.3.1.2 0 .4-.1.5l-1.6 1.5.4 2.2c0 .2 0 .4-.2.5-.2.1-.3.1-.4.1zm-2.2-2.1c.1 0 .2 0 .2.1l1.3.7-.2-1.6c0-.2 0-.3.1-.4l1.1-1-1.5-.2c-.2 0-.3-.1-.4-.3l-.6-1.3-.6 1.3c-.1.1-.2.3-.4.3l-1.4.2 1.1 1c.1.1.2.3.1.4l-.2 1.4 1.3-.7c0 .1.1.1.1.1zM20.7 32.9c-.1 0-.2 0-.2-.1l-2-1-2 1c-.2.1-.4.1-.5 0-.2-.1-.2-.3-.2-.5l.4-2.2-1.6-1.5c-.1-.1-.2-.3-.1-.5s.2-.3.4-.3l2.2-.3 1-2c.2-.3.7-.3.9 0l1 2 2.2.3c.2 0 .3.2.4.3.1.2 0 .4-.1.5l-1.6 1.5.4 2.2c0 .2 0 .4-.2.5-.2 0-.3.1-.4.1zm-2.2-2.2c.1 0 .2 0 .2.1l1.3.7-.2-1.5c0-.2 0-.3.1-.4l1.1-1-1.5-.2c-.2 0-.3-.1-.4-.3l-.6-1.3-.6 1.2c-.1.1-.2.3-.4.3l-1.5.2 1.1 1c.1.1.2.3.1.4l-.2 1.5 1.3-.7h.2zm12.2 2.2c-.1 0-.2 0-.2-.1l-2-1-2 1c-.2.1-.4.1-.5 0-.2-.1-.2-.3-.2-.5l.4-2.2-1.6-1.5c-.1-.1-.2-.3-.1-.5s.2-.3.4-.3l2.2-.3 1-2c.2-.3.7-.3.9 0l1 2 2.2.3c.2 0 .3.2.4.3.1.2 0 .4-.1.5l-1.6 1.5.4 2.2c0 .2 0 .4-.2.5-.2 0-.3.1-.4.1zm-2.2-2.2c.1 0 .2 0 .2.1l1.3.7-.2-1.5c0-.2 0-.3.1-.4l1.1-1-1.5-.2c-.2 0-.3-.1-.4-.3l-.6-1.3-.7 1.2c-.1.1-.2.3-.4.3l-1.4.2 1.1 1c.1.1.2.3.1.4l-.2 1.4 1.3-.7c0 .1.1.1.2.1z" fill="#ffffff" class="color000 svgShape"></path><path d="M24 48C10.8 48 0 37.2 0 24S10.8 0 24 0s24 10.8 24 24-10.8 24-24 24zm0-47C11.3 1 1 11.3 1 24s10.3 23 23 23 23-10.3 23-23S36.7 1 24 1z" fill="#ffffff" class="color000 svgShape"></path></svg></g></svg>