<svg id="SvgjsSvg1277" width="288" height="288" xmlns="http://www.w3.org/2000/svg" version="1.1" xmlns:xlink="http://www.w3.org/1999/xlink" xmlns:svgjs="http://svgjs.com/svgjs"><defs id="SvgjsDefs1278"></defs><g id="SvgjsG1279"><svg xmlns="http://www.w3.org/2000/svg" enable-background="new 0 0 24 24" viewBox="0 0 24 24" width="288" height="288"><path d="M4,21c0,0.5522,0.4473,1,1,1h13c1.6543,0,3-1.3457,3-3s-1.3457-3-3-3h-8c-0.5518,0-1-0.4487-1-1s0.4482-1,1-1h6
		c0.5527,0,1-0.4478,1-1s-0.4473-1-1-1h-3V9.858C14.7205,9.4108,16,7.8583,16,6c0-2.2056-1.7939-4-4-4S8,3.7944,8,6
		c0,1.8583,1.2795,3.4108,3,3.858V12h-1c-1.6543,0-3,1.3457-3,3s1.3457,3,3,3h8c0.5518,0,1,0.4487,1,1s-0.4482,1-1,1H5
		C4.4473,20,4,20.4478,4,21z M10,6c0-1.103,0.8975-2,2-2s2,0.897,2,2s-0.8975,2-2,2S10,7.103,10,6z" fill="#ffffff" class="color000 svgShape"></path></svg></g></svg>